MOTORING: F1 Forum

On: BBC Interactive 
   
Date: Sunday 14th April 2013 

Time: 10:15 to 11:15 (1 hour long)

Credit :- Hannibal

BBC Post race Forum show and analysis by the BBC team. This is the additional show aired after the race and the post race show on BBC Red Button.

Technical Information:

Video

ID                             : 0
Format                         : MPEG-4 Visual
Format profile                 : Advanced Simple@L5
Format settings, BVOP          : 2
Format settings, QPel          : No
Format settings, GMC           : No warppoints
Format settings, Matrix        : Default (H.263)
Muxing mode                    : Packed bitstream
Codec ID                       : XVID
Codec ID/Hint                  : XviD
Duration                       : 1h 2mn
Bit rate                       : 1 204 Kbps
Width                          : 608 pixels
Height                         : 336 pixels
Display aspect ratio           : 16:9
Frame rate                     : 25.000 fps
Color space                    : YUV
Chroma subsampling             : 4:2:0
Bit depth                      : 8 bits
Scan type                      : Progressive
Compression mode               : Lossy
Bits/(Pixel*Frame)             : 0.236
Stream size                    : 537 MiB (90%)
Writing library                : XviD 1.2.1 (UTC 2008-12-04)

Audio

ID                             : 1
Format                         : MPEG Audio
Format version                 : Version 1
Format profile                 : Layer 3
Mode                           : Joint stereo
Mode extension                 : MS Stereo
Codec ID                       : 55
Codec ID/Hint                  : MP3
Duration                       : 1h 2mn
Bit rate mode                  : Constant
Bit rate                       : 128 Kbps
Channel(s)                     : 2 channels
Sampling rate                  : 48.0 KHz
Compression mode               : Lossy
Stream size                    : 57.1 MiB (10%)
Alignment                      : Aligned on interleaves
Interleave, duration           : 40 ms (1.00 video frame)
Interleave, preload duration   : 504 ms

Screens :
 
http://i.imgur.com/t49EA8q.jpg
 
http://i.imgur.com/EH5F96p.jpg
 
http://i.imgur.com/iGfNjXs.jpg